# xmcd
#
# Track frame offsets: 
# 150
# 16905
# 37042
# 61375
# 81462
# 99832
# 120930
# 141402
# 165460
# 187485
# 209867
#
# Disc length: 3357 seconds
# Submitted via: tkcNetwork 1.0
# Revision: 0
# Processed by: cddbd v1.5.1PL2 Copyright (c) Steve Scherf et al.
#
DISCID=9f0d1b0b
DTITLE=Van Dik Hout - Van Dik Hout
DYEAR=1994
DGENRE=Nederpop
TTITLE0=Baksteen and Het Water
TTITLE1=Water and Vuur
TTITLE2=Dichterbij
TTITLE3=Laarzen Aan Mijn Voeten
TTITLE4=Stil In Mij
TTITLE5=Roze Bloemen
TTITLE6='s Nachts In Mijn Dromen
TTITLE7=Zoet and Zacht
TTITLE8=Een Geloof
TTITLE9=Alles Of Niets
TTITLE10=Meer Dan Een Ander
EXTD=
EXTT0=
EXTT1=
EXTT2=
EXTT3=
EXTT4=
EXTT5=
EXTT6=
EXTT7=
EXTT8=
EXTT9=
EXTT10=
PLAYORDER=
